<svg width="10" height="4" viewBox="0 0 10 4" fill="none" xmlns="http://www.w3.org/2000/svg">
<path d="M5.00875 0C6.71578 0 8.35476 0.566289 9.68993 1.61499L9.87862 1.7632C10.0291 1.88136 10.0423 2.10401 9.90686 2.23904L8.6935 3.44904C8.58127 3.56095 8.40369 3.57381 8.27643 3.47923L8.12852 3.3693C7.22675 2.6991 6.13938 2.3396 5.00875 2.3396C3.87117 2.3396 2.77744 2.70357 1.87267 3.38146L1.72461 3.4924C1.59734 3.58775 1.41912 3.5752 1.30655 3.46295L0.093633 2.2534C-0.0414892 2.11865 -0.0286605 1.89656 0.121084 1.77818L0.308707 1.62985C1.64705 0.5718 3.29349 0 5.00875 0Z" fill="black"/>
</svg>
