<svg width="55" height="55" viewBox="0 0 55 55" fill="none" xmlns="http://www.w3.org/2000/svg">
<circle cx="27.5" cy="27.5" r="27.5" fill="#E89A8D"/>
<path d="M37.8155 14.116C39.9855 14.116 41.7525 15.883 41.7525 18.053V26.764C41.7525 27.043 41.6905 27.3065 41.551 27.5235C43.1165 29.213 43.9845 31.4295 43.9845 33.739C43.9845 38.8695 39.9545 42.8995 34.824 42.8995C34.2195 42.8995 33.615 42.853 33.057 42.729V42.8995H16.937C14.767 42.8995 13 41.1325 13 38.9625V18.053C13 15.883 14.767 14.116 16.937 14.116H37.8155ZM37.8155 16.782H16.937C16.1465 16.782 15.666 17.2625 15.666 18.053V32.5455C17.0145 31.4295 18.6885 30.763 20.44 30.6545L21.1685 30.639C21.463 30.639 21.8195 30.6855 22.1605 30.8095C22.8115 31.042 23.292 31.4915 23.478 32.3285C23.478 33.522 22.5635 33.739 21.1685 33.3825L20.905 33.3205H20.6725C19.7425 33.3515 18.518 33.7545 17.2935 34.8085C16.906 35.1495 16.565 35.5215 16.255 35.9245C16.0225 36.219 15.821 36.56 15.6505 36.9165V38.9315C15.6505 39.722 16.131 40.2025 16.9215 40.2025H28.2985C26.5935 38.482 25.617 36.1415 25.648 33.708C25.648 28.5775 29.6935 24.5475 34.8085 24.5475C36.343 24.5475 37.7845 24.935 39.071 25.6015V18.053C39.102 17.2625 38.606 16.782 37.8155 16.782ZM34.8395 27.2135C31.259 27.229 28.3605 30.1275 28.345 33.708C28.345 37.2885 31.2745 40.2025 34.8395 40.2025C38.4045 40.2025 41.334 37.273 41.334 33.708C41.3185 30.143 38.4045 27.2135 34.8395 27.2135ZM39.691 30.608C40.2025 31.104 40.2335 31.9255 39.722 32.4525L39.691 32.4835L34.297 37.8775C34.0955 38.079 33.8475 38.2185 33.5685 38.265L33.367 38.2805C33.0105 38.2805 32.685 38.1255 32.437 37.8775L30.0035 35.444C29.492 34.948 29.461 34.1265 29.9725 33.5995L30.0035 33.5685C30.515 33.057 31.1195 33.057 31.8015 33.522L31.8635 33.5685L33.367 35.072L37.831 30.608C38.327 30.0965 39.1485 30.0655 39.6755 30.577C39.6755 30.5925 39.6755 30.5925 39.691 30.608ZM21.804 19.6805C23.633 19.6805 25.0435 21.1065 25.0435 22.92C25.059 24.687 23.633 26.144 21.866 26.1595H21.804C20.037 26.175 18.58 24.749 18.5645 22.982V22.92C18.5645 21.091 19.9905 19.6805 21.804 19.6805Z" fill="white"/>
</svg>
