<svg width="55" height="55" viewBox="0 0 55 55" fill="none" xmlns="http://www.w3.org/2000/svg">
<circle cx="27.5" cy="27.5" r="27.5" fill="#EAE3E0"/>
<path d="M35.7607 38.2015H20.7715C18.7847 38.2015 17.1689 36.5857 17.1689 34.5996V19.6097C17.1689 17.6236 18.7847 16.0078 20.7715 16.0078H30.8686C31.4068 16.0078 31.8433 16.4443 31.8433 16.9825C31.8433 17.5206 31.4068 17.9572 30.8686 17.9572H20.7715C19.8603 17.9572 19.119 18.6985 19.119 19.6097V34.5996C19.119 35.5108 19.8603 36.2521 20.7715 36.2521H35.7607C36.6719 36.2521 37.4133 35.5108 37.4133 34.5996V26.8001C37.4133 26.2613 37.8498 25.8255 38.3879 25.8255C38.9261 25.8255 39.3626 26.262 39.3626 26.8001V34.5989C39.3633 36.5857 37.7475 38.2015 35.7607 38.2015Z" fill="#6F5D55"/>
<path d="M26.358 33.8594C25.8198 33.8594 25.3833 33.4229 25.3833 32.8848V31.6266C25.3833 25.576 30.3055 20.6538 36.3555 20.6538H41.6821C42.2203 20.6538 42.6568 21.0903 42.6568 21.6285C42.6568 22.1666 42.2203 22.6032 41.6821 22.6032H36.3555C31.3805 22.6032 27.3327 26.651 27.3327 31.626V32.8841C27.3327 33.4236 26.8961 33.8594 26.358 33.8594Z" fill="#6F5D55"/>
<path d="M41.8684 22.4955C41.6384 22.4955 41.4078 22.4146 41.2226 22.2502L35.9468 17.5706C35.5437 17.2137 35.5069 16.5973 35.8646 16.1949C36.2215 15.7924 36.8379 15.755 37.2403 16.1126L42.5162 20.7922C42.9193 21.1491 42.9561 21.7655 42.5984 22.1679C42.4066 22.3845 42.1378 22.4955 41.8684 22.4955Z" fill="#6F5D55"/>
</svg>