<svg width="189" height="34" viewBox="0 0 189 34" fill="none" xmlns="http://www.w3.org/2000/svg">
<g filter="url(#filter0_d_10038_3135)">
<path d="M4 7C4 3.13401 7.13401 0 11 0H178C181.866 0 185 3.13401 185 7V19C185 22.866 181.866 26 178 26H11C7.13401 26 4 22.866 4 19V7Z" fill="white"/>
</g>
<path d="M56.784 8.88L57.968 9.232C57.5947 9.97867 57.1627 10.704 56.672 11.408C56.1813 12.112 55.6587 12.768 55.104 13.376C54.56 13.984 54.0053 14.5173 53.44 14.976C53.3653 14.9013 53.264 14.8107 53.136 14.704C53.0187 14.5973 52.896 14.4907 52.768 14.384C52.64 14.2773 52.528 14.192 52.432 14.128C53.008 13.712 53.568 13.2267 54.112 12.672C54.656 12.1173 55.1573 11.5147 55.616 10.864C56.0747 10.2133 56.464 9.552 56.784 8.88ZM60.176 9.024H61.36V17.104C61.36 17.4453 61.4187 17.6693 61.536 17.776C61.664 17.872 61.936 17.92 62.352 17.92C62.448 17.92 62.624 17.92 62.88 17.92C63.1467 17.92 63.4347 17.92 63.744 17.92C64.064 17.92 64.3627 17.92 64.64 17.92C64.9173 17.92 65.12 17.92 65.248 17.92C65.504 17.92 65.696 17.856 65.824 17.728C65.952 17.6 66.0427 17.36 66.096 17.008C66.1493 16.6453 66.192 16.1227 66.224 15.44C66.32 15.504 66.432 15.568 66.56 15.632C66.688 15.696 66.8213 15.7547 66.96 15.808C67.0987 15.8507 67.2213 15.888 67.328 15.92C67.2747 16.72 67.184 17.3493 67.056 17.808C66.9387 18.2667 66.7413 18.5867 66.464 18.768C66.1973 18.9493 65.8133 19.04 65.312 19.04C65.2373 19.04 65.0933 19.04 64.88 19.04C64.6773 19.04 64.4427 19.04 64.176 19.04C63.9093 19.04 63.6373 19.04 63.36 19.04C63.0933 19.04 62.8587 19.04 62.656 19.04C62.4533 19.04 62.32 19.04 62.256 19.04C61.712 19.04 61.2907 18.9813 60.992 18.864C60.6933 18.7573 60.48 18.56 60.352 18.272C60.2347 17.9947 60.176 17.6053 60.176 17.104V9.024ZM65.744 10.4L66.656 11.328C66.1653 11.648 65.6053 11.9733 64.976 12.304C64.3467 12.624 63.6907 12.9333 63.008 13.232C62.336 13.5307 61.68 13.8133 61.04 14.08C61.008 13.952 60.944 13.8027 60.848 13.632C60.7627 13.4507 60.6773 13.3013 60.592 13.184C61.2213 12.928 61.8507 12.6453 62.48 12.336C63.12 12.016 63.7227 11.6907 64.288 11.36C64.864 11.0293 65.3493 10.7093 65.744 10.4ZM52.96 6.032H67.024V7.184H52.96V6.032ZM56.816 4.56H57.984V8.88H56.816V4.56ZM62.048 4.56H63.248V8.96H62.048V4.56ZM55.456 11.904L56.624 10.736L56.64 10.752V19.28H55.456V11.904ZM73.444 14.912H87.604V15.968H73.444V14.912ZM76.116 12.032H83.812V13.024H76.116V12.032ZM79.908 13.952H81.092V17.968C81.092 18.2987 81.0387 18.5493 80.932 18.72C80.836 18.9013 80.644 19.0347 80.356 19.12C80.0787 19.1947 79.7053 19.2427 79.236 19.264C78.7667 19.2853 78.18 19.296 77.476 19.296C77.444 19.1253 77.3853 18.9387 77.3 18.736C77.2147 18.544 77.1293 18.3733 77.044 18.224C77.428 18.2347 77.7907 18.24 78.132 18.24C78.4733 18.2507 78.7667 18.2507 79.012 18.24C79.268 18.24 79.444 18.24 79.54 18.24C79.6893 18.2293 79.7853 18.2027 79.828 18.16C79.8813 18.1173 79.908 18.0427 79.908 17.936V13.952ZM83.428 12.032H83.716L83.972 11.968L84.708 12.576C84.196 13.0027 83.588 13.408 82.884 13.792C82.18 14.176 81.492 14.496 80.82 14.752C80.7453 14.656 80.644 14.5387 80.516 14.4C80.388 14.2613 80.276 14.1493 80.18 14.064C80.5853 13.9147 80.9907 13.744 81.396 13.552C81.812 13.3493 82.196 13.136 82.548 12.912C82.9 12.6773 83.1933 12.4587 83.428 12.256V12.032ZM73.444 7.904H87.588V8.928H73.444V7.904ZM79.86 5.776H81.044V11.6H79.86V5.776ZM79.252 8.24L80.212 8.688C79.8387 9.14667 79.4013 9.59467 78.9 10.032C78.3987 10.4587 77.86 10.864 77.284 11.248C76.708 11.6213 76.1213 11.9627 75.524 12.272C74.9267 12.5707 74.34 12.8267 73.764 13.04C73.668 12.9013 73.5453 12.7413 73.396 12.56C73.2467 12.368 73.108 12.2187 72.98 12.112C73.556 11.9307 74.1373 11.7067 74.724 11.44C75.3213 11.1627 75.9027 10.8533 76.468 10.512C77.0333 10.1707 77.5507 9.808 78.02 9.424C78.5 9.04 78.9107 8.64533 79.252 8.24ZM81.764 8.288C82.084 8.672 82.4787 9.05067 82.948 9.424C83.4173 9.78667 83.924 10.128 84.468 10.448C85.0227 10.768 85.5933 11.056 86.18 11.312C86.7667 11.568 87.3373 11.7813 87.892 11.952C87.8173 12.016 87.732 12.1067 87.636 12.224C87.54 12.3413 87.444 12.4587 87.348 12.576C87.2627 12.6933 87.188 12.8 87.124 12.896C86.5587 12.704 85.9773 12.464 85.38 12.176C84.7933 11.8773 84.2173 11.5467 83.652 11.184C83.0973 10.8107 82.5747 10.416 82.084 10C81.604 9.584 81.1773 9.15733 80.804 8.72L81.764 8.288ZM84.932 4.624L85.924 5.488C85.22 5.65867 84.42 5.808 83.524 5.936C82.628 6.064 81.684 6.176 80.692 6.272C79.7 6.35733 78.6973 6.432 77.684 6.496C76.6813 6.54933 75.7053 6.592 74.756 6.624C74.7453 6.48533 74.708 6.32 74.644 6.128C74.5907 5.936 74.5373 5.77067 74.484 5.632C75.4013 5.6 76.3453 5.55733 77.316 5.504C78.2973 5.45067 79.2573 5.38133 80.196 5.296C81.1453 5.21067 82.0253 5.11467 82.836 5.008C83.6573 4.89067 84.356 4.76267 84.932 4.624ZM100.376 4.576H101.608V12.704C101.608 13.0773 101.555 13.3653 101.448 13.568C101.352 13.76 101.165 13.904 100.888 14C100.621 14.096 100.264 14.16 99.816 14.192C99.368 14.2133 98.808 14.224 98.136 14.224C98.1147 14.0533 98.0613 13.8507 97.976 13.616C97.8907 13.3813 97.7947 13.1787 97.688 13.008C98.0507 13.008 98.3867 13.008 98.696 13.008C99.016 13.008 99.2933 13.008 99.528 13.008C99.7627 13.008 99.928 13.008 100.024 13.008C100.163 13.008 100.253 12.9867 100.296 12.944C100.349 12.9013 100.376 12.816 100.376 12.688V4.576ZM103.848 6.992L104.936 6.432C105.405 6.96533 105.869 7.54667 106.328 8.176C106.787 8.80533 107.203 9.42933 107.576 10.048C107.949 10.6667 108.237 11.2213 108.44 11.712L107.24 12.368C107.059 11.8773 106.787 11.3227 106.424 10.704C106.061 10.0747 105.656 9.43467 105.208 8.784C104.76 8.13333 104.307 7.536 103.848 6.992ZM104.904 11.36L106.152 11.744C105.779 12.8747 105.288 13.8613 104.68 14.704C104.072 15.5467 103.331 16.272 102.456 16.88C101.592 17.488 100.579 17.9893 99.416 18.384C98.2533 18.7787 96.9307 19.088 95.448 19.312C95.3947 19.1307 95.304 18.928 95.176 18.704C95.0587 18.48 94.936 18.288 94.808 18.128C96.2267 17.9467 97.4853 17.6853 98.584 17.344C99.6827 16.992 100.643 16.5493 101.464 16.016C102.285 15.472 102.979 14.816 103.544 14.048C104.109 13.28 104.563 12.384 104.904 11.36ZM96.84 6.592L98.152 6.912C97.896 7.552 97.5867 8.21867 97.224 8.912C96.8613 9.59467 96.4667 10.256 96.04 10.896C95.6133 11.5253 95.16 12.08 94.68 12.56C94.584 12.4853 94.472 12.4053 94.344 12.32C94.2267 12.224 94.0987 12.1333 93.96 12.048C93.832 11.9627 93.7147 11.8933 93.608 11.84C94.0773 11.392 94.52 10.8747 94.936 10.288C95.352 9.69067 95.72 9.072 96.04 8.432C96.3707 7.792 96.6373 7.17867 96.84 6.592ZM114.316 8.384H128.748V9.6H114.316V8.384ZM120.3 4.56L121.58 4.8C121.271 5.62133 120.929 6.49067 120.556 7.408C120.193 8.31467 119.82 9.232 119.436 10.16C119.052 11.088 118.673 11.9733 118.3 12.816C117.927 13.6587 117.585 14.4107 117.276 15.072L116.076 14.624C116.396 13.9947 116.737 13.264 117.1 12.432C117.473 11.6 117.847 10.7307 118.22 9.824C118.604 8.90667 118.972 8 119.324 7.104C119.687 6.19733 120.012 5.34933 120.3 4.56ZM125.02 8.928L126.3 9.232C126.001 10.7787 125.585 12.128 125.052 13.28C124.519 14.4213 123.82 15.392 122.956 16.192C122.092 16.992 121.015 17.6427 119.724 18.144C118.433 18.656 116.881 19.0453 115.068 19.312C115.015 19.1307 114.924 18.928 114.796 18.704C114.679 18.4907 114.556 18.3093 114.428 18.16C116.177 17.9253 117.66 17.584 118.876 17.136C120.103 16.6773 121.116 16.08 121.916 15.344C122.727 14.608 123.377 13.712 123.868 12.656C124.359 11.6 124.743 10.3573 125.02 8.928ZM116.892 14.016L117.692 13.088C118.609 13.3867 119.564 13.744 120.556 14.16C121.559 14.5653 122.545 14.9973 123.516 15.456C124.487 15.9147 125.388 16.384 126.22 16.864C127.063 17.344 127.777 17.8027 128.364 18.24L127.468 19.36C126.913 18.9227 126.225 18.4587 125.404 17.968C124.583 17.4773 123.692 16.992 122.732 16.512C121.783 16.032 120.807 15.5787 119.804 15.152C118.801 14.7253 117.831 14.3467 116.892 14.016Z" fill="#6F5D55"/>
<path d="M172 10L167 15L162 10" stroke="#6F5D55" stroke-width="1.66667" stroke-linecap="round" stroke-linejoin="round"/>
<defs>
<filter id="filter0_d_10038_3135" x="0" y="0" width="189" height="34" filterUnits="userSpaceOnUse" color-interpolation-filters="sRGB">
<feFlood flood-opacity="0" result="BackgroundImageFix"/>
<feColorMatrix in="SourceAlpha" type="matrix" values="0 0 0 0 0 0 0 0 0 0 0 0 0 0 0 0 0 0 127 0" result="hardAlpha"/>
<feOffset dy="4"/>
<feGaussianBlur stdDeviation="2"/>
<feComposite in2="hardAlpha" operator="out"/>
<feColorMatrix type="matrix" values="0 0 0 0 0 0 0 0 0 0 0 0 0 0 0 0 0 0 0.13 0"/>
<feBlend mode="normal" in2="BackgroundImageFix" result="effect1_dropShadow_10038_3135"/>
<feBlend mode="normal" in="SourceGraphic" in2="effect1_dropShadow_10038_3135" result="shape"/>
</filter>
</defs>
</svg>
