<svg width="60" height="60" viewBox="0 0 60 60" fill="none" xmlns="http://www.w3.org/2000/svg">
<path d="M46.33 46.6674C42.4814 50.4383 37.4464 52.761 32.0797 53.2412C26.7131 53.7215 21.3457 52.3296 16.8887 49.302C12.4317 46.2744 9.15987 41.7975 7.62869 36.6316C6.09751 31.4657 6.40136 25.929 8.48864 20.9617C10.5759 15.9943 14.318 11.9024 19.0795 9.38072C23.8411 6.85898 29.3286 6.06285 34.6104 7.12747C39.8923 8.19209 44.6429 11.0519 48.0558 15.2212C51.4686 19.3906 53.3333 24.6126 53.3334 30.0007C53.3335 30.8847 53.6847 31.7324 54.3098 32.3574C54.935 32.9824 55.7827 33.3335 56.6667 33.3335C57.5507 33.3335 58.3984 32.9824 59.0235 32.3574C59.6486 31.7324 59.9999 30.8847 60 30.0007C60.0002 23.1317 57.6431 16.4706 53.3226 11.1305C49.0021 5.79043 42.9799 2.09471 36.2622 0.66089C29.5444 -0.772936 22.5381 0.141977 16.4139 3.25276C10.2896 6.36355 5.41837 11.4818 2.61403 17.7523C-0.19031 24.0228 -0.757872 31.0657 1.00617 37.7044C2.77022 44.343 6.75902 50.1753 12.3061 54.2266C17.8532 58.2779 24.6226 60.303 31.4832 59.9633C38.3438 59.6237 44.8802 56.9401 50 52.3607V53.334C50 55.1874 51.4934 56.6674 53.3334 56.6674C55.1867 56.6674 56.6667 55.1741 56.6667 53.334V43.334C56.668 42.8959 56.5827 42.4619 56.4156 42.0569C56.2486 41.6519 56.0031 41.2839 55.6933 40.9741C55.3835 40.6643 55.0155 40.4188 54.6105 40.2518C54.2055 40.0847 53.7715 39.9994 53.3334 40.0007H43.3334C41.48 40.0007 40 41.4941 40 43.334C40 45.1874 41.4934 46.6674 43.3334 46.6674H46.33Z" fill="#3D3D3D"/>
</svg>
