<svg width="26" height="26" viewBox="0 0 26 26" fill="none" xmlns="http://www.w3.org/2000/svg">
<path d="M18.7607 24.2015H3.77152C1.78472 24.2015 0.168945 22.5857 0.168945 20.5996V5.60971C0.168945 3.62359 1.78472 2.00781 3.77152 2.00781H13.8686C14.4068 2.00781 14.8433 2.44435 14.8433 2.98249C14.8433 3.52064 14.4068 3.95717 13.8686 3.95717H3.77152C2.86034 3.95717 2.11897 4.69854 2.11897 5.60971V20.5996C2.11897 21.5108 2.86034 22.2521 3.77152 22.2521H18.7607C19.6719 22.2521 20.4133 21.5108 20.4133 20.5996V12.8001C20.4133 12.2613 20.8498 11.8255 21.3879 11.8255C21.9261 11.8255 22.3626 12.262 22.3626 12.8001V20.5989C22.3633 22.5857 20.7475 24.2015 18.7607 24.2015Z" fill="#6F5D55"/>
<path d="M9.35847 19.8594C8.82032 19.8594 8.38379 19.4229 8.38379 18.8848V17.6266C8.38379 11.576 13.306 6.65381 19.356 6.65381H24.6826C25.2207 6.65381 25.6573 7.09034 25.6573 7.62849C25.6573 8.16663 25.2207 8.60317 24.6826 8.60317H19.356C14.3809 8.60317 10.3331 12.651 10.3331 17.626V18.8841C10.3331 19.4236 9.89661 19.8594 9.35847 19.8594Z" fill="#6F5D55"/>
<path d="M24.8689 8.49551C24.6389 8.49551 24.4083 8.41462 24.2231 8.25017L18.9473 3.57064C18.5442 3.21365 18.5074 2.59729 18.8651 2.19485C19.222 1.79241 19.8384 1.75498 20.2408 2.11263L25.5167 6.79216C25.9198 7.14914 25.9566 7.7655 25.5989 8.16794C25.407 8.38454 25.1383 8.49551 24.8689 8.49551Z" fill="#6F5D55"/>
</svg>
