<svg width="55" height="55" viewBox="0 0 55 55" fill="none" xmlns="http://www.w3.org/2000/svg">
<g clip-path="url(#clip0_8010_3278)">
<path d="M0 27.5C0 34.7935 2.89731 41.7882 8.05456 46.9454C13.2118 52.1027 20.2065 55 27.5 55C34.7935 55 41.7882 52.1027 46.9454 46.9454C52.1027 41.7882 55 34.7935 55 27.5C55 20.2065 52.1027 13.2118 46.9454 8.05456C41.7882 2.89731 34.7935 0 27.5 0C20.2065 0 13.2118 2.89731 8.05456 8.05456C2.89731 13.2118 0 20.2065 0 27.5Z" fill="#EAE3E0"/>
<path d="M27.6 31.1495C27.9001 31.2995 28.2002 31.4496 28.4997 31.4496C28.7998 31.4496 29.0999 31.2995 29.4 31.1495L36.0001 25.7497C36.5997 25.2995 36.7503 24.2491 36.1496 23.6495C35.7 23.0498 34.6496 22.8992 34.05 23.4994L29.9997 26.7995V14.5C29.9997 13.6002 29.4 13 28.4997 13C27.6 13 26.9998 13.6002 26.9998 14.5V26.8001L22.95 23.5C22.1998 22.9003 21.3 23.0504 20.8499 23.6501C20.2502 24.2503 20.3997 25.3001 20.9999 25.7503L27.6 31.1501V31.1495ZM37.5 34H19.5C18.6002 34 18 34.5997 18 35.5C18 36.3998 18.6002 37 19.5 37H37.5C38.3998 37 39 36.3998 39 35.4994C39 34.6002 38.3998 34 37.4995 34H37.5Z" fill="#6F5D55"/>
</g>
<defs>
<clipPath id="clip0_8010_3278">
<rect width="55" height="55" fill="white"/>
</clipPath>
</defs>
</svg>
