<svg width="21" height="20" viewBox="0 0 21 20" fill="none" xmlns="http://www.w3.org/2000/svg">
<path d="M4 4C5.21515 2.64142 6.81417 1.68382 8.58547 1.25392C10.3568 0.82401 12.2169 0.942062 13.9196 1.59245C15.6223 2.24284 17.0875 3.39491 18.1211 4.89621C19.1548 6.39751 19.7082 8.17728 19.7082 10C19.7082 11.8227 19.1548 13.6025 18.1211 15.1038C17.0875 16.6051 15.6223 17.7572 13.9196 18.4076C12.2169 19.0579 10.3568 19.176 8.58547 18.7461C6.81417 18.3162 5.21515 17.3586 4 16" stroke="#6F5D55" stroke-width="2" stroke-linecap="round"/>
<path d="M4 4H0L4 0L8 4H4Z" fill="#6F5D55"/>
</svg>
