<svg width="13" height="13" viewBox="0 0 13 13" fill="none" xmlns="http://www.w3.org/2000/svg">
<path d="M2.42281 2.86648C3.1587 2.04373 4.12706 1.46382 5.19975 1.20347C6.27244 0.943119 7.3989 1.01461 8.43007 1.40848C9.46124 1.80235 10.3485 2.50004 10.9745 3.40922C11.6005 4.3184 11.9356 5.39622 11.9356 6.50005C11.9356 7.60388 11.6005 8.6817 10.9745 9.59088C10.3485 10.5001 9.46124 11.1977 8.43007 11.5916C7.3989 11.9855 6.27244 12.057 5.19975 11.7966C4.12706 11.5363 3.1587 10.9564 2.42281 10.1336" stroke="#6F5D55" stroke-width="2" stroke-linecap="round"/>
<path d="M2.42238 2.8665H0L2.42238 0.444122L4.84476 2.8665H2.42238Z" fill="#6F5D55"/>
</svg>
