<svg width="87" height="32" viewBox="0 0 87 32" fill="none" xmlns="http://www.w3.org/2000/svg">
<rect x="0.250648" y="0.250648" width="86.4987" height="31.4987" rx="15.7494" fill="white" stroke="#E9E9E9" stroke-width="0.501295"/>
<path d="M65.5 7C70.4706 7 74.5 11.0294 74.5 16C74.5 20.9706 70.4706 25 65.5 25C60.5294 25 56.5 20.9706 56.5 16C56.5 11.0294 60.5294 7 65.5 7ZM65.5 9C61.6341 9.00007 58.5 12.1341 58.5 16C58.5 19.866 61.6341 22.9999 65.5 23C69.366 23 72.5 19.866 72.5 16C72.5 12.134 69.366 9 65.5 9ZM65.5 12.5C67.433 12.5 69 14.067 69 16C69 17.933 67.433 19.5 65.5 19.5C63.567 19.5 62 17.933 62 16C62 14.067 63.567 12.5 65.5 12.5Z" fill="black"/>
<rect x="43" y="6" width="0.5" height="20" fill="#E9E9E9"/>
<path d="M23 12.5C24.933 12.5 26.5 14.067 26.5 16C26.5 17.933 24.933 19.4999 23 19.5C21.067 19.5 19.5 17.933 19.5 16C19.5 14.067 21.067 12.5 23 12.5ZM15.5 14C16.6046 14 17.5 14.8954 17.5 16C17.5 17.1045 16.6045 18 15.5 18C14.3955 18 13.5 17.1045 13.5 16C13.5 14.8954 14.3954 14 15.5 14ZM30.5 14C31.6046 14 32.5 14.8954 32.5 16C32.5 17.1046 31.6046 18 30.5 18C29.3954 18 28.5 17.1046 28.5 16C28.5 14.8954 29.3954 14 30.5 14Z" fill="#333333"/>
</svg>
