<svg width="70" height="70" viewBox="0 0 70 70" fill="none" xmlns="http://www.w3.org/2000/svg">
<path d="M35 19.6875C26.4688 19.6875 19.6875 26.4688 19.6875 35C19.6875 43.5312 26.4688 50.3125 35 50.3125C43.5312 50.3125 50.3125 43.5312 50.3125 35C50.3125 26.4688 43.5312 19.6875 35 19.6875ZM35 47.0312C28.4375 47.0312 22.9688 41.5625 22.9688 35C22.9688 28.4375 28.4375 22.9688 35 22.9688C41.5625 22.9688 47.0312 28.4375 47.0312 35C47.0312 41.5625 41.5625 47.0312 35 47.0312Z" fill="#FDF9F6"/>
<path d="M52.5 25.375C52.5 26.3033 52.8688 27.1935 53.5251 27.8499C54.1815 28.5063 55.0717 28.875 56 28.875C56.9283 28.875 57.8185 28.5063 58.4749 27.8499C59.1313 27.1935 59.5 26.3033 59.5 25.375C59.5 24.4467 59.1313 23.5565 58.4749 22.9001C57.8185 22.2437 56.9283 21.875 56 21.875C55.0717 21.875 54.1815 22.2437 53.5251 22.9001C52.8688 23.5565 52.5 24.4467 52.5 25.375Z" fill="#FDF9F6"/>
<path d="M59.0625 15.3125H52.5L50.9688 10.7188C50.5312 9.625 49.2188 8.75 48.125 8.75H21.875C20.5625 8.75 19.4688 9.625 19.0312 10.7188L17.5 15.3125H10.9375C7.21875 15.3125 4.375 18.1562 4.375 21.875V52.5C4.375 56.2188 7.4375 59.0625 10.9375 59.0625H59.0625C62.7812 59.0625 65.625 56.2188 65.625 52.5V21.875C65.625 18.1562 62.7812 15.3125 59.0625 15.3125ZM62.3438 52.5C62.3438 54.25 60.8125 55.7812 59.0625 55.7812H10.9375C9.1875 55.7812 7.65625 54.25 7.65625 52.5V21.875C7.65625 20.125 9.1875 18.5938 10.9375 18.5938H17.5H19.9063L20.5625 16.4062L22.0938 12.0312H47.9062L49.4375 16.4062L50.0938 18.5938H52.5H59.0625C60.8125 18.5938 62.3438 20.125 62.3438 21.875V52.5Z" fill="#FDF9F6"/>
</svg>
