<svg width="31" height="29" viewBox="0 0 31 29" fill="none" xmlns="http://www.w3.org/2000/svg">
<path d="M24.828 0C26.9991 0 28.767 1.76789 28.767 3.93899V12.6544C28.767 12.9335 28.705 13.1972 28.5654 13.4143C30.1317 15.1046 31.0001 17.3222 31.0001 19.6329C31.0001 24.766 26.9681 28.798 21.835 28.798C21.2302 28.798 20.6254 28.7515 20.0671 28.6274V28.798H3.93899C1.76789 28.798 0 27.0301 0 24.859V3.93899C0 1.76789 1.76789 0 3.93899 0H24.828ZM24.828 2.66734H3.93899C3.14809 2.66734 2.66734 3.14809 2.66734 3.93899V18.4388C4.01652 17.3222 5.69137 16.6554 7.44375 16.5468L8.17262 16.5313C8.46727 16.5313 8.82395 16.5779 9.16512 16.7019C9.81645 16.9345 10.2972 17.3843 10.4833 18.2217C10.4833 19.4158 9.56832 19.6329 8.17262 19.2762L7.90899 19.2142H7.67637C6.7459 19.2452 5.52078 19.6484 4.29567 20.7029C3.90797 21.0441 3.5668 21.4163 3.25664 21.8195C3.02402 22.1141 2.82242 22.4553 2.65184 22.812V24.828C2.65184 25.6189 3.13258 26.0997 3.92348 26.0997H15.3062C13.6004 24.3783 12.6234 22.0366 12.6544 19.6019C12.6544 14.4688 16.7019 10.4368 21.8195 10.4368C23.3548 10.4368 24.797 10.8245 26.0841 11.4913V3.93899C26.1152 3.14809 25.6189 2.66734 24.828 2.66734ZM21.8505 13.1041C18.2682 13.1196 15.3682 16.0196 15.3527 19.6019C15.3527 23.1842 18.2837 26.0997 21.8505 26.0997C25.4173 26.0997 28.3483 23.1687 28.3483 19.6019C28.3328 16.0351 25.4173 13.1041 21.8505 13.1041ZM26.7045 16.5003C27.2162 16.9966 27.2472 17.8185 26.7355 18.3457L26.7045 18.3768L21.3077 23.7735C21.1061 23.9751 20.858 24.1147 20.5789 24.1612L20.3773 24.1767C20.0206 24.1767 19.6949 24.0216 19.4468 23.7735L17.0121 21.3388C16.5003 20.8425 16.4693 20.0206 16.9811 19.4933L17.0121 19.4623C17.5238 18.9505 18.1286 18.9505 18.811 19.4158L18.873 19.4623L20.3773 20.9666L24.8435 16.5003C25.3398 15.9886 26.1617 15.9575 26.689 16.4693C26.689 16.4848 26.689 16.4848 26.7045 16.5003ZM8.80844 5.56731C10.6384 5.56731 12.0496 6.99402 12.0496 8.80844C12.0651 10.5763 10.6384 12.0341 8.87047 12.0496H8.80844C7.04055 12.0651 5.58281 10.6384 5.56731 8.87047V8.80844C5.56731 6.97852 6.99403 5.56731 8.80844 5.56731Z" fill="white"/>
</svg>
