<svg width="19" height="7" viewBox="0 0 19 7" fill="none" xmlns="http://www.w3.org/2000/svg">
<path d="M9.5 0C11.433 1.48178e-05 13 1.56701 13 3.5C13 5.43299 11.433 6.99999 9.5 7C7.56701 7 6 5.433 6 3.5C6 1.56701 7.56701 0 9.5 0ZM2 1.5C3.10455 1.5 3.99998 2.39545 4 3.5C4 4.60457 3.10457 5.5 2 5.5C0.895446 5.49998 0 4.60456 0 3.5C2.08086e-05 2.39546 0.895459 1.50002 2 1.5ZM17 1.5C18.1046 1.5 19 2.39543 19 3.5C19 4.60456 18.1046 5.5 17 5.5C15.8954 5.49999 15 4.60455 15 3.5C15 2.39544 15.8954 1.50001 17 1.5Z" fill="white"/>
</svg>
