<svg width="20" height="15" viewBox="0 0 20 15" fill="none" xmlns="http://www.w3.org/2000/svg">
<path d="M17.558 1.26254L6.78192 12.197L2.44815 7.42984C2.29719 7.27333 2.09113 7.18187 1.87379 7.17492C1.65645 7.16797 1.44497 7.24607 1.28432 7.39261C1.12366 7.53915 1.02651 7.74258 1.0135 7.95964C1.0005 8.1767 1.07268 8.39028 1.21469 8.55495L5.50679 13.3554C5.65435 13.5177 5.83249 13.6493 6.031 13.7426C6.2295 13.8359 6.44448 13.8891 6.66359 13.8992C6.8827 13.9093 7.10165 13.876 7.30787 13.8013C7.5141 13.7266 7.70355 13.6119 7.86537 13.4638L7.93204 13.3971L18.7498 2.42933C18.8264 2.35107 18.8869 2.2585 18.9277 2.15688C18.9685 2.05527 18.989 1.9466 18.9878 1.8371C18.9866 1.72759 18.9639 1.61938 18.9209 1.51866C18.878 1.41793 18.8156 1.32665 18.7373 1.25004C18.6591 1.17343 18.5665 1.11298 18.4649 1.07215C18.3632 1.03131 18.2546 1.01089 18.1451 1.01205C18.0356 1.01322 17.9274 1.03593 17.8266 1.07891C17.7259 1.12189 17.6346 1.18429 17.558 1.26254Z" fill="white" stroke="white" stroke-width="2"/>
</svg>
