<svg width="62" height="51" viewBox="0 0 62 51" fill="none" xmlns="http://www.w3.org/2000/svg">
<path d="M55.3571 6.64286H48.7143L47.1643 1.99286C46.7214 0.885715 45.3929 0 44.2857 0H17.7143C16.3857 0 15.2786 0.885715 14.8357 1.99286L13.2857 6.64286H6.64286C2.87857 6.64286 0 9.52143 0 13.2857V44.2857C0 48.05 3.1 50.9286 6.64286 50.9286H55.3571C59.1214 50.9286 62 48.05 62 44.2857V13.2857C62 9.52143 59.1214 6.64286 55.3571 6.64286ZM58.6786 44.2857C58.6786 46.0571 57.1286 47.6071 55.3571 47.6071H6.64286C4.87143 47.6071 3.32143 46.0571 3.32143 44.2857V13.2857C3.32143 11.5143 4.87143 9.96429 6.64286 9.96429H13.2857H15.7214L16.3857 7.75L17.9357 3.32143H44.0643L45.6143 7.75L46.2786 9.96429H48.7143H55.3571C57.1286 9.96429 58.6786 11.5143 58.6786 13.2857V44.2857Z" fill="#FDF9F6"/>
</svg>
